<svg width="76" height="79" viewBox="0 0 76 79" fill="none" xmlns="http://www.w3.org/2000/svg">
<path d="M75.3846 39.2C75.3846 49.5965 71.4135 59.5672 64.3448 66.9186C57.2761 74.27 47.6889 78.4 37.6923 78.4C27.6957 78.4 18.1085 74.27 11.0398 66.9186C3.97114 59.5672 1.50945e-06 49.5965 0 39.2L37.6923 39.2H75.3846Z" fill="#042C71"/>
<path d="M3.05176e-05 39.2C3.05176e-05 28.8035 3.97118 18.8328 11.0398 11.4814C18.1085 4.12998 27.6957 -7.62939e-06 37.6923 -7.62939e-06C47.689 -7.62939e-06 57.2761 4.12998 64.3448 11.4814C71.4135 18.8328 75.3846 28.8035 75.3846 39.2L37.6923 39.2H3.05176e-05Z" fill="#0B6AB0"/>
<line x1="30.3845" y1="13.3214" x2="23.6599" y2="73.1021" stroke="#F36B1C" stroke-opacity="0.6" stroke-width="1.5" stroke-linecap="round"/>
<line x1="0.75" y1="-0.75" x2="61.4284" y2="-0.75" transform="matrix(-0.111816 -0.993729 -0.993729 0.111816 52.2552 74.3056)" stroke="#F36B1C" stroke-opacity="0.6" stroke-width="1.5" stroke-linecap="round"/>
<rect x="37.1141" y="16.3918" width="1.42834" height="6.66559" rx="0.71417" fill="white"/>
<rect x="37.1141" y="28.7708" width="1.42834" height="6.66559" rx="0.71417" fill="white"/>
<rect x="37.1141" y="41.1498" width="1.42834" height="6.66559" rx="0.71417" fill="white"/>
<rect x="37.1141" y="53.5287" width="1.42834" height="6.66559" rx="0.71417" fill="white"/>
<rect x="37.1141" y="65.9077" width="1.42834" height="6.66559" rx="0.71417" fill="white"/>
<path d="M19.8696 36.2138V36.2136C19.8696 35.5217 19.3082 34.9602 18.6162 34.9602H15.3308C14.6389 34.9602 14.0774 35.5217 14.0774 36.2136V36.811C14.0774 37.5196 14.3525 38.0732 14.8785 38.4407C15.3927 38.8 16.1238 38.9657 17.0135 38.9657C17.9062 38.9657 18.6367 38.7976 19.1401 38.4318C19.6554 38.0574 19.9056 37.4954 19.869 36.7829L19.8696 36.2138ZM18.5576 36.8121H18.5573L18.5579 36.8229C18.5659 36.9768 18.5444 37.0957 18.501 37.189C18.4585 37.2803 18.3893 37.3596 18.2798 37.4272C18.0507 37.5686 17.653 37.6537 17.0135 37.6537C16.3726 37.6537 15.9611 37.5664 15.7152 37.4208C15.5964 37.3504 15.5182 37.2676 15.4682 37.1737C15.4176 37.0787 15.3895 36.9604 15.3895 36.811V36.2723H18.5576V36.8121ZM14.8608 32.2333L14.9277 31.9735H14.6594H12.0454C11.3534 31.9735 10.792 32.5349 10.792 33.2268V33.8242C10.792 34.5328 11.067 35.0864 11.5931 35.454C12.1073 35.8132 12.8384 35.979 13.7281 35.979V35.9791L13.7342 35.9789L13.7545 35.9783L13.9074 35.9738L13.9487 35.8266C14.0441 35.4865 14.262 35.1937 14.5604 35.0046L14.4186 34.6232C14.2257 34.6518 13.9967 34.6669 13.7281 34.6669C13.0872 34.6669 12.6756 34.5797 12.4297 34.434C12.311 34.3637 12.2328 34.2809 12.1827 34.1869C12.1321 34.0919 12.104 33.9736 12.104 33.8242V33.2855H14.6026H14.8385L14.809 33.0515C14.7745 32.7779 14.7921 32.5003 14.8608 32.2333ZM23.1551 33.2271V33.2268C23.1551 32.5349 22.5936 31.9735 21.9017 31.9735H19.2877H19.0197L19.0862 32.233C19.1546 32.5004 19.1724 32.7782 19.1386 33.052L19.1098 33.2855H19.345H21.843V33.8254H21.8427L21.8433 33.8362C21.8513 33.9901 21.8298 34.109 21.7864 34.2023C21.744 34.2935 21.6747 34.3729 21.5653 34.4404C21.3361 34.5819 20.9384 34.6669 20.299 34.6669C19.9849 34.6669 19.7236 34.6459 19.5085 34.6059L19.3622 34.988C19.6723 35.1771 19.8994 35.4765 19.9978 35.8261L20.04 35.9759L20.1956 35.9778L20.2965 35.979V35.979H20.299C21.1916 35.979 21.9222 35.8109 22.4255 35.4451C22.9408 35.0706 23.191 34.5087 23.1545 33.7962L23.1551 33.2271ZM19.7725 30.2786L19.6254 30.4256L19.7725 30.2786C19.6434 30.1495 19.5709 29.9745 19.5709 29.7921C19.5709 29.6096 19.6434 29.4346 19.7725 29.3056L19.6254 29.1585L19.7725 29.3056C19.9015 29.1765 20.0765 29.104 20.259 29.104C20.4414 29.104 20.6164 29.1765 20.7455 29.3056C20.8745 29.4346 20.947 29.6096 20.947 29.7921C20.947 29.9745 20.8745 30.1495 20.7455 30.2786C20.6164 30.4076 20.4414 30.4801 20.259 30.4801C20.0765 30.4801 19.9015 30.4076 19.7725 30.2786ZM17.7389 30.931C17.4963 30.8305 17.2362 30.7788 16.9735 30.7788C16.4431 30.7788 15.9344 30.9895 15.5593 31.3646C15.1842 31.7396 14.9735 32.2484 14.9735 32.7788C14.9735 33.3093 15.1842 33.818 15.5593 34.1931C15.9344 34.5682 16.4431 34.7789 16.9735 34.7789C17.2362 34.7789 17.4963 34.7272 17.7389 34.6266C17.9816 34.5261 18.2021 34.3788 18.3878 34.1931C18.5735 34.0074 18.7208 33.7869 18.8213 33.5442C18.9219 33.3016 18.9736 33.0415 18.9736 32.7788C18.9736 32.5162 18.9219 32.2561 18.8213 32.0134C18.7208 31.7708 18.5735 31.5503 18.3878 31.3646C18.2021 31.1788 17.9816 31.0315 17.7389 30.931ZM16.7102 32.1432C16.7937 32.1086 16.8832 32.0908 16.9735 32.0908C17.156 32.0908 17.331 32.1633 17.46 32.2923C17.5891 32.4213 17.6615 32.5963 17.6615 32.7788C17.6615 32.9613 17.5891 33.1363 17.46 33.2653C17.331 33.3944 17.156 33.4668 16.9735 33.4668C16.8832 33.4668 16.7937 33.449 16.7102 33.4145C16.6268 33.3799 16.5509 33.3292 16.487 33.2653C16.4231 33.2014 16.3725 33.1256 16.3379 33.0421C16.3033 32.9586 16.2855 32.8692 16.2855 32.7788C16.2855 32.6885 16.3033 32.599 16.3379 32.5155C16.3725 32.4321 16.4231 32.3562 16.487 32.2923C16.5509 32.2284 16.6268 32.1777 16.7102 32.1432ZM15.1023 28.3778C14.7273 28.0027 14.2185 27.792 13.6881 27.792C13.1576 27.792 12.6489 28.0027 12.2738 28.3778C11.8987 28.7529 11.688 29.2616 11.688 29.7921C11.688 30.3225 11.8987 30.8312 12.2738 31.2063C12.6489 31.5814 13.1576 31.7921 13.6881 31.7921C14.2185 31.7921 14.7273 31.5814 15.1023 31.2063C15.4774 30.8312 15.6882 30.3225 15.6882 29.7921C15.6882 29.2616 15.4774 28.7529 15.1023 28.3778ZM21.6732 28.3778C21.2981 28.0027 20.7894 27.792 20.259 27.792C19.7285 27.792 19.2198 28.0027 18.8447 28.3778C18.4696 28.7529 18.2589 29.2616 18.2589 29.7921C18.2589 30.3225 18.4696 30.8312 18.8447 31.2063C19.2198 31.5814 19.7285 31.7921 20.259 31.7921C20.7894 31.7921 21.2981 31.5814 21.6732 31.2063C22.0483 30.8312 22.259 30.3225 22.259 29.7921C22.259 29.2616 22.0483 28.7529 21.6732 28.3778ZM13.2016 29.3056C13.3306 29.1765 13.5056 29.104 13.6881 29.104C13.8706 29.104 14.0456 29.1765 14.1746 29.3056C14.3036 29.4346 14.3761 29.6096 14.3761 29.7921C14.3761 29.9745 14.3036 30.1495 14.1746 30.2786C14.0456 30.4076 13.8706 30.4801 13.6881 30.4801C13.5056 30.4801 13.3306 30.4076 13.2016 30.2786C13.0726 30.1495 13.0001 29.9745 13.0001 29.7921C13.0001 29.6096 13.0726 29.4346 13.2016 29.3056Z" fill="white" stroke="#F36B1C" stroke-width="0.416013"/>
<mask id="path-11-outside-1_21_2" maskUnits="userSpaceOnUse" x="51.5884" y="27" width="18" height="13" fill="black">
<rect fill="white" x="51.5884" y="27" width="18" height="13"/>
<path d="M55.2784 29.345H66.0383V36.07H55.2784M66.0383 37.415C66.395 37.415 66.7371 37.2733 66.9893 37.0211C67.2416 36.7688 67.3833 36.4267 67.3833 36.07V29.345C67.3833 28.9883 67.2416 28.6462 66.9893 28.3939C66.7371 28.1417 66.395 28 66.0383 28H55.2784C54.5319 28 53.9334 28.5985 53.9334 29.345V36.07C53.9334 36.4267 54.0751 36.7688 54.3273 37.0211C54.5795 37.2733 54.9216 37.415 55.2784 37.415H52.5884V38.76H68.7283V37.415H66.0383Z"/>
</mask>
<path d="M55.2784 29.345H66.0383V36.07H55.2784M66.0383 37.415C66.395 37.415 66.7371 37.2733 66.9893 37.0211C67.2416 36.7688 67.3833 36.4267 67.3833 36.07V29.345C67.3833 28.9883 67.2416 28.6462 66.9893 28.3939C66.7371 28.1417 66.395 28 66.0383 28H55.2784C54.5319 28 53.9334 28.5985 53.9334 29.345V36.07C53.9334 36.4267 54.0751 36.7688 54.3273 37.0211C54.5795 37.2733 54.9216 37.415 55.2784 37.415H52.5884V38.76H68.7283V37.415H66.0383Z" fill="white"/>
<path d="M66.0383 29.345H66.4544V28.9289H66.0383V29.345ZM66.0383 36.07V36.4861H66.4544V36.07H66.0383ZM66.0383 28V27.5839V28ZM53.9334 36.07H53.5173H53.9334ZM52.5884 37.415V36.9989H52.1723V37.415H52.5884ZM52.5884 38.76H52.1723V39.1761H52.5884V38.76ZM68.7283 38.76V39.1761H69.1443V38.76H68.7283ZM68.7283 37.415H69.1443V36.9989H68.7283V37.415ZM55.2784 29.7611H66.0383V28.9289H55.2784V29.7611ZM65.6222 29.345V36.07H66.4544V29.345H65.6222ZM66.0383 35.6539H55.2784V36.4861H66.0383V35.6539ZM66.0383 37.8311C66.5053 37.8311 66.9533 37.6455 67.2835 37.3153L66.6951 36.7268C66.5209 36.9011 66.2846 36.9989 66.0383 36.9989V37.8311ZM67.2835 37.3153C67.6138 36.985 67.7993 36.5371 67.7993 36.07H66.9672C66.9672 36.3164 66.8693 36.5526 66.6951 36.7268L67.2835 37.3153ZM67.7993 36.07V29.345H66.9672V36.07H67.7993ZM67.7993 29.345C67.7993 28.8779 67.6138 28.43 67.2835 28.0997L66.6951 28.6882C66.8693 28.8624 66.9672 29.0986 66.9672 29.345H67.7993ZM67.2835 28.0997C66.9533 27.7695 66.5053 27.5839 66.0383 27.5839V28.4161C66.2846 28.4161 66.5209 28.5139 66.6951 28.6882L67.2835 28.0997ZM66.0383 27.5839H55.2784V28.4161H66.0383V27.5839ZM55.2784 27.5839C54.3021 27.5839 53.5173 28.3687 53.5173 29.345H54.3494C54.3494 28.8283 54.7617 28.4161 55.2784 28.4161V27.5839ZM53.5173 29.345V36.07H54.3494V29.345H53.5173ZM53.5173 36.07C53.5173 36.5371 53.7028 36.985 54.0331 37.3153L54.6215 36.7268C54.4473 36.5526 54.3494 36.3164 54.3494 36.07H53.5173ZM54.0331 37.3153C54.3634 37.6455 54.8113 37.8311 55.2784 37.8311V36.9989C55.032 36.9989 54.7957 36.9011 54.6215 36.7268L54.0331 37.3153ZM55.2784 36.9989H52.5884V37.8311H55.2784V36.9989ZM52.1723 37.415V38.76H53.0045V37.415H52.1723ZM52.5884 39.1761H68.7283V38.3439H52.5884V39.1761ZM69.1443 38.76V37.415H68.3122V38.76H69.1443ZM68.7283 36.9989H66.0383V37.8311H68.7283V36.9989Z" fill="#F36B1C" mask="url(#path-11-outside-1_21_2)"/>
</svg>
