<svg width="24" height="24" viewBox="0 0 24 24" fill="none" xmlns="http://www.w3.org/2000/svg">
<path d="M15.5 11C16.3284 11 17 10.3284 17 9.49997C17 8.67154 16.3284 7.99997 15.5 7.99997C14.6716 7.99997 14 8.67154 14 9.49997C14 10.3284 14.6716 11 15.5 11Z" fill="#042C71"/>
<path d="M8.5 11C9.32843 11 10 10.3284 10 9.49997C10 8.67154 9.32843 7.99997 8.5 7.99997C7.67157 7.99997 7 8.67154 7 9.49997C7 10.3284 7.67157 11 8.5 11Z" fill="#042C71"/>
<path d="M12 18C14.28 18 16.22 16.34 17 14H7C7.78 16.34 9.72 18 12 18Z" fill="#042C71"/>
<path d="M11.99 1.99997C6.47 1.99997 2 6.47997 2 12C2 17.52 6.47 22 11.99 22C17.52 22 22 17.52 22 12C22 6.47997 17.52 1.99997 11.99 1.99997ZM12 20C7.58 20 4 16.42 4 12C4 7.57997 7.58 3.99997 12 3.99997C16.42 3.99997 20 7.57997 20 12C20 16.42 16.42 20 12 20Z" fill="#042C71"/>
</svg>
