<svg width="19" height="24" viewBox="0 0 19 24" fill="none" xmlns="http://www.w3.org/2000/svg">
<path d="M10.4857 9.3705C10.6507 8.8755 11.3497 8.8755 11.5147 9.3705L12.4822 12.276C12.6952 12.9147 13.054 13.495 13.5302 13.971C14.0064 14.4469 14.5869 14.8054 15.2257 15.018L18.1297 15.9855C18.6247 16.1505 18.6247 16.8495 18.1297 17.0145L15.2242 17.982C14.5855 18.195 14.0052 18.5538 13.5292 19.03C13.0533 19.5062 12.6948 20.0867 12.4822 20.7255L11.5147 23.6295C11.4791 23.7379 11.4102 23.8323 11.3178 23.8992C11.2254 23.9661 11.1143 24.0021 11.0002 24.0021C10.8861 24.0021 10.775 23.9661 10.6826 23.8992C10.5902 23.8323 10.5213 23.7379 10.4857 23.6295L9.5182 20.724C9.3054 20.0855 8.94683 19.5052 8.47089 19.0293C7.99496 18.5534 7.41474 18.1948 6.7762 17.982L3.8707 17.0145C3.76231 16.9789 3.66792 16.91 3.60101 16.8176C3.53409 16.7252 3.49806 16.6141 3.49806 16.5C3.49806 16.3859 3.53409 16.2748 3.60101 16.1824C3.66792 16.09 3.76231 16.0211 3.8707 15.9855L6.7762 15.018C7.41474 14.8052 7.99496 14.4466 8.47089 13.9707C8.94683 13.4948 9.3054 12.9145 9.5182 12.276L10.4857 9.3705ZM4.6912 1.722C4.71271 1.65704 4.75415 1.60051 4.80962 1.56045C4.86509 1.52038 4.93178 1.49882 5.0002 1.49882C5.06863 1.49882 5.13532 1.52038 5.19079 1.56045C5.24626 1.60051 5.28769 1.65704 5.3092 1.722L5.8897 3.465C6.1492 4.242 6.7582 4.851 7.5352 5.1105L9.2782 5.691C9.34316 5.71251 9.39969 5.75395 9.43975 5.80942C9.47982 5.86489 9.50138 5.93157 9.50138 6C9.50138 6.06843 9.47982 6.13512 9.43975 6.19059C9.39969 6.24606 9.34316 6.28749 9.2782 6.309L7.5352 6.8895C7.15199 7.01718 6.80378 7.23235 6.51817 7.51796C6.23255 7.80358 6.01738 8.15179 5.8897 8.535L5.3092 10.278C5.28769 10.343 5.24626 10.3995 5.19079 10.4396C5.13532 10.4796 5.06863 10.5012 5.0002 10.5012C4.93178 10.5012 4.86509 10.4796 4.80962 10.4396C4.75415 10.3995 4.71271 10.343 4.6912 10.278L4.1107 8.535C3.98303 8.15179 3.76786 7.80358 3.48224 7.51796C3.19663 7.23235 2.84842 7.01718 2.4652 6.8895L0.722204 6.309C0.657246 6.28749 0.600718 6.24606 0.560653 6.19059C0.520588 6.13512 0.499023 6.06843 0.499023 6C0.499023 5.93157 0.520588 5.86489 0.560653 5.80942C0.600718 5.75395 0.657246 5.71251 0.722204 5.691L2.4652 5.1105C2.84842 4.98283 3.19663 4.76766 3.48224 4.48204C3.76786 4.19642 3.98303 3.84821 4.1107 3.465L4.6912 1.722ZM15.2947 0.148501C15.3095 0.10579 15.3373 0.0687547 15.3741 0.0425432C15.4109 0.0163317 15.455 0.00224686 15.5002 0.00224686C15.5454 0.00224686 15.5895 0.0163317 15.6263 0.0425432C15.6631 0.0687547 15.6909 0.10579 15.7057 0.148501L16.0927 1.3095C16.2652 1.8285 16.6717 2.235 17.1907 2.4075L18.3517 2.7945C18.3944 2.80931 18.4314 2.83706 18.4577 2.87389C18.4839 2.91072 18.498 2.9548 18.498 3C18.498 3.04521 18.4839 3.08929 18.4577 3.12612C18.4314 3.16295 18.3944 3.19069 18.3517 3.2055L17.1907 3.5925C16.9349 3.67759 16.7025 3.82113 16.5119 4.01172C16.3213 4.20232 16.1778 4.43473 16.0927 4.6905L15.7057 5.8515C15.6909 5.89421 15.6631 5.93125 15.6263 5.95746C15.5895 5.98367 15.5454 5.99776 15.5002 5.99776C15.455 5.99776 15.4109 5.98367 15.3741 5.95746C15.3373 5.93125 15.3095 5.89421 15.2947 5.8515L14.9077 4.6905C14.8226 4.43473 14.6791 4.20232 14.4885 4.01172C14.2979 3.82113 14.0655 3.67759 13.8097 3.5925L12.6502 3.2055C12.6075 3.19069 12.5705 3.16295 12.5442 3.12612C12.518 3.08929 12.5039 3.04521 12.5039 3C12.5039 2.9548 12.518 2.91072 12.5442 2.87389C12.5705 2.83706 12.6075 2.80931 12.6502 2.7945L13.8112 2.4075C14.3302 2.235 14.7367 1.8285 14.9092 1.3095L15.2947 0.150001V0.148501Z" fill="#F36B1C"/>
</svg>
